<?xml version="1.0" encoding="UTF-8" standalone="no"?>
<!-- Created with Inkscape (http://www.inkscape.org/) -->

<svg
   xmlns:dc="http://purl.org/dc/elements/1.1/"
   xmlns:cc="http://creativecommons.org/ns#"
   xmlns:rdf="http://www.w3.org/1999/02/22-rdf-syntax-ns#"
   xmlns:svg="http://www.w3.org/2000/svg"
   xmlns="http://www.w3.org/2000/svg"
   xmlns:sodipodi="http://sodipodi.sourceforge.net/DTD/sodipodi-0.dtd"
   xmlns:inkscape="http://www.inkscape.org/namespaces/inkscape"
   width="600"
   height="600"
   id="svg3771"
   version="1.1"
   inkscape:version="0.48.1 r9760"
   sodipodi:docname="sourcefu-logo.svg"
   inkscape:export-filename="/home/pdurbin/art/greptilian1.png"
   inkscape:export-xdpi="2.4000001"
   inkscape:export-ydpi="2.4000001">
  <defs
     id="defs3773">
    <inkscape:path-effect
       fuse_tolerance="0"
       vertical_pattern="false"
       prop_units="false"
       tang_offset="0"
       normal_offset="0"
       spacing="0"
       scale_y_rel="false"
       prop_scale="1"
       copytype="single_stretched"
       pattern="m 393.91466,498.4832 c 0,-2.76 2.24,-5 5,-5 2.76,0 5,2.24 5,5 0,2.76 -2.24,5 -5,5 -2.76,0 -5,-2.24 -5,-5 z"
       is_visible="true"
       id="path-effect3788"
       effect="skeletal" />
    <inkscape:path-effect
       is_visible="true"
       id="path-effect3786"
       effect="spiro" />
    <inkscape:path-effect
       effect="skeletal"
       id="path-effect3760"
       is_visible="true"
       pattern="m -210.11173,-104.09647 c 0,-2.76 2.24,-5 5,-5 2.76,0 5,2.24 5,5 0,2.76 -2.24,4.999995 -5,4.999995 -2.76,0 -5,-2.239995 -5,-4.999995 z"
       copytype="single_stretched"
       prop_scale="1"
       scale_y_rel="false"
       spacing="0"
       normal_offset="0"
       tang_offset="0"
       prop_units="false"
       vertical_pattern="false"
       fuse_tolerance="0" />
    <inkscape:path-effect
       effect="spiro"
       id="path-effect3758"
       is_visible="true" />
    <inkscape:path-effect
       effect="skeletal"
       id="path-effect3754"
       is_visible="true"
       pattern="M 0,5 C 0,2.24 2.24,0 5,0 7.76,0 10,2.24 10,5 10,7.76 7.76,10 5,10 2.24,10 0,7.76 0,5 z"
       copytype="single_stretched"
       prop_scale="1"
       scale_y_rel="false"
       spacing="0"
       normal_offset="0"
       tang_offset="0"
       prop_units="false"
       vertical_pattern="false"
       fuse_tolerance="0" />
    <inkscape:path-effect
       effect="spiro"
       id="path-effect3752"
       is_visible="true" />
    <inkscape:path-effect
       effect="skeletal"
       id="path-effect3700"
       is_visible="true"
       pattern="M 0,5 C 0,2.24 2.24,0 5,0 7.76,0 10,2.24 10,5 10,7.76 7.76,10 5,10 2.24,10 0,7.76 0,5 z"
       copytype="single_stretched"
       prop_scale="1"
       scale_y_rel="false"
       spacing="0"
       normal_offset="0"
       tang_offset="0"
       prop_units="false"
       vertical_pattern="false"
       fuse_tolerance="0" />
    <inkscape:path-effect
       effect="spiro"
       id="path-effect3698"
       is_visible="true" />
    <inkscape:path-effect
       effect="skeletal"
       id="path-effect3694"
       is_visible="true"
       pattern="M 0,5 C 0,2.24 2.24,0 5,0 7.76,0 10,2.24 10,5 10,7.76 7.76,10 5,10 2.24,10 0,7.76 0,5 z"
       copytype="single_stretched"
       prop_scale="1"
       scale_y_rel="false"
       spacing="0"
       normal_offset="0"
       tang_offset="0"
       prop_units="false"
       vertical_pattern="false"
       fuse_tolerance="0" />
    <inkscape:path-effect
       effect="spiro"
       id="path-effect3692"
       is_visible="true" />
    <inkscape:path-effect
       effect="skeletal"
       id="path-effect3688"
       is_visible="true"
       pattern="M 0,5 C 0,2.24 2.24,0 5,0 7.76,0 10,2.24 10,5 10,7.76 7.76,10 5,10 2.24,10 0,7.76 0,5 z"
       copytype="single_stretched"
       prop_scale="1"
       scale_y_rel="false"
       spacing="0"
       normal_offset="0"
       tang_offset="0"
       prop_units="false"
       vertical_pattern="false"
       fuse_tolerance="0" />
    <inkscape:path-effect
       effect="spiro"
       id="path-effect3686"
       is_visible="true" />
    <inkscape:path-effect
       effect="skeletal"
       id="path-effect3682"
       is_visible="true"
       pattern="M 0,5 C 0,2.24 2.24,0 5,0 7.76,0 10,2.24 10,5 10,7.76 7.76,10 5,10 2.24,10 0,7.76 0,5 z"
       copytype="single_stretched"
       prop_scale="1"
       scale_y_rel="false"
       spacing="0"
       normal_offset="0"
       tang_offset="0"
       prop_units="false"
       vertical_pattern="false"
       fuse_tolerance="0" />
    <inkscape:path-effect
       effect="spiro"
       id="path-effect3680"
       is_visible="true" />
    <inkscape:path-effect
       effect="skeletal"
       id="path-effect3616"
       is_visible="true"
       pattern="M 0,5 C 0,2.24 2.24,0 5,0 7.76,0 10,2.24 10,5 10,7.76 7.76,10 5,10 2.24,10 0,7.76 0,5 z"
       copytype="single_stretched"
       prop_scale="1"
       scale_y_rel="false"
       spacing="0"
       normal_offset="0"
       tang_offset="0"
       prop_units="false"
       vertical_pattern="false"
       fuse_tolerance="0" />
    <inkscape:path-effect
       effect="spiro"
       id="path-effect3614"
       is_visible="true" />
    <inkscape:path-effect
       effect="skeletal"
       id="path-effect3610"
       is_visible="true"
       pattern="M 0,5 C 0,2.24 2.24,0 5,0 7.76,0 10,2.24 10,5 10,7.76 7.76,10 5,10 2.24,10 0,7.76 0,5 z"
       copytype="single_stretched"
       prop_scale="1"
       scale_y_rel="false"
       spacing="0"
       normal_offset="0"
       tang_offset="0"
       prop_units="false"
       vertical_pattern="false"
       fuse_tolerance="0" />
    <inkscape:path-effect
       effect="spiro"
       id="path-effect3608"
       is_visible="true" />
    <inkscape:path-effect
       effect="skeletal"
       id="path-effect3604"
       is_visible="true"
       pattern="M 0,5 C 0,2.24 2.24,0 5,0 7.76,0 10,2.24 10,5 10,7.76 7.76,10 5,10 2.24,10 0,7.76 0,5 z"
       copytype="single_stretched"
       prop_scale="1"
       scale_y_rel="false"
       spacing="0"
       normal_offset="0"
       tang_offset="0"
       prop_units="false"
       vertical_pattern="false"
       fuse_tolerance="0" />
    <inkscape:path-effect
       effect="spiro"
       id="path-effect3602"
       is_visible="true" />
    <inkscape:path-effect
       effect="skeletal"
       id="path-effect3598"
       is_visible="true"
       pattern="M 0,5 C 0,2.24 2.24,0 5,0 7.76,0 10,2.24 10,5 10,7.76 7.76,10 5,10 2.24,10 0,7.76 0,5 z"
       copytype="single_stretched"
       prop_scale="1"
       scale_y_rel="false"
       spacing="0"
       normal_offset="0"
       tang_offset="0"
       prop_units="false"
       vertical_pattern="false"
       fuse_tolerance="0" />
    <inkscape:path-effect
       effect="spiro"
       id="path-effect3596"
       is_visible="true" />
    <inkscape:path-effect
       effect="skeletal"
       id="path-effect3592"
       is_visible="true"
       pattern="M 0,5 C 0,2.24 2.24,0 5,0 7.76,0 10,2.24 10,5 10,7.76 7.76,10 5,10 2.24,10 0,7.76 0,5 z"
       copytype="single_stretched"
       prop_scale="1"
       scale_y_rel="false"
       spacing="0"
       normal_offset="0"
       tang_offset="0"
       prop_units="false"
       vertical_pattern="false"
       fuse_tolerance="0" />
    <inkscape:path-effect
       effect="spiro"
       id="path-effect3590"
       is_visible="true" />
    <inkscape:path-effect
       fuse_tolerance="0"
       vertical_pattern="false"
       prop_units="false"
       tang_offset="0"
       normal_offset="0"
       spacing="0"
       scale_y_rel="false"
       prop_scale="1"
       copytype="single_stretched"
       pattern="m 219.50779,565.85329 c 0,-2.76 2.24,-5 5,-5 2.76,0 5,2.24 5,5 0,2.76 -2.24,5 -5,5 -2.76,0 -5,-2.24 -5,-5 z"
       is_visible="true"
       id="path-effect3544"
       effect="skeletal" />
    <inkscape:path-effect
       is_visible="true"
       id="path-effect3542"
       effect="spiro" />
    <inkscape:path-effect
       effect="skeletal"
       id="path-effect3510"
       is_visible="true"
       pattern="M 0,5 C 0,2.24 2.24,0 5,0 7.76,0 10,2.24 10,5 10,7.76 7.76,10 5,10 2.24,10 0,7.76 0,5 z"
       copytype="single_stretched"
       prop_scale="1"
       scale_y_rel="false"
       spacing="0"
       normal_offset="0"
       tang_offset="0"
       prop_units="false"
       vertical_pattern="false"
       fuse_tolerance="0" />
    <inkscape:path-effect
       effect="spiro"
       id="path-effect3508"
       is_visible="true" />
    <inkscape:path-effect
       effect="skeletal"
       id="path-effect3504"
       is_visible="true"
       pattern="m -415.59365,74.916483 c 0,-2.76 2.24,-5 5,-5 2.76,0 5,2.24 5,5 0,2.76 -2.24,5.000003 -5,5.000003 -2.76,0 -5,-2.240003 -5,-5.000003 z"
       copytype="single_stretched"
       prop_scale="1"
       scale_y_rel="false"
       spacing="0"
       normal_offset="0"
       tang_offset="0"
       prop_units="false"
       vertical_pattern="false"
       fuse_tolerance="0" />
    <inkscape:path-effect
       effect="spiro"
       id="path-effect3502"
       is_visible="true" />
    <inkscape:path-effect
       effect="skeletal"
       id="path-effect3498"
       is_visible="true"
       pattern="M 0,5 C 0,2.24 2.24,0 5,0 7.76,0 10,2.24 10,5 10,7.76 7.76,10 5,10 2.24,10 0,7.76 0,5 z"
       copytype="single_stretched"
       prop_scale="1"
       scale_y_rel="false"
       spacing="0"
       normal_offset="0"
       tang_offset="0"
       prop_units="false"
       vertical_pattern="false"
       fuse_tolerance="0" />
    <inkscape:path-effect
       effect="spiro"
       id="path-effect3496"
       is_visible="true" />
    <inkscape:path-effect
       effect="skeletal"
       id="path-effect3492"
       is_visible="true"
       pattern="M 0,5 C 0,2.24 2.24,0 5,0 7.76,0 10,2.24 10,5 10,7.76 7.76,10 5,10 2.24,10 0,7.76 0,5 z"
       copytype="single_stretched"
       prop_scale="1"
       scale_y_rel="false"
       spacing="0"
       normal_offset="0"
       tang_offset="0"
       prop_units="false"
       vertical_pattern="false"
       fuse_tolerance="0" />
    <inkscape:path-effect
       effect="spiro"
       id="path-effect3490"
       is_visible="true" />
    <inkscape:path-effect
       effect="skeletal"
       id="path-effect3486"
       is_visible="true"
       pattern="M 0,5 C 0,2.24 2.24,0 5,0 7.76,0 10,2.24 10,5 10,7.76 7.76,10 5,10 2.24,10 0,7.76 0,5 z"
       copytype="single_stretched"
       prop_scale="1"
       scale_y_rel="false"
       spacing="0"
       normal_offset="0"
       tang_offset="0"
       prop_units="false"
       vertical_pattern="false"
       fuse_tolerance="0" />
    <inkscape:path-effect
       effect="spiro"
       id="path-effect3484"
       is_visible="true" />
    <inkscape:path-effect
       effect="skeletal"
       id="path-effect3480"
       is_visible="true"
       pattern="M 0,5 C 0,2.24 2.24,0 5,0 7.76,0 10,2.24 10,5 10,7.76 7.76,10 5,10 2.24,10 0,7.76 0,5 z"
       copytype="single_stretched"
       prop_scale="1"
       scale_y_rel="false"
       spacing="0"
       normal_offset="0"
       tang_offset="0"
       prop_units="false"
       vertical_pattern="false"
       fuse_tolerance="0" />
    <inkscape:path-effect
       effect="spiro"
       id="path-effect3478"
       is_visible="true" />
    <inkscape:path-effect
       effect="skeletal"
       id="path-effect3474"
       is_visible="true"
       pattern="M 0,5 C 0,2.24 2.24,0 5,0 7.76,0 10,2.24 10,5 10,7.76 7.76,10 5,10 2.24,10 0,7.76 0,5 z"
       copytype="single_stretched"
       prop_scale="1"
       scale_y_rel="false"
       spacing="0"
       normal_offset="0"
       tang_offset="0"
       prop_units="false"
       vertical_pattern="false"
       fuse_tolerance="0" />
    <inkscape:path-effect
       effect="spiro"
       id="path-effect3472"
       is_visible="true" />
    <inkscape:path-effect
       effect="skeletal"
       id="path-effect3468"
       is_visible="true"
       pattern="M 0,5 C 0,2.24 2.24,0 5,0 7.76,0 10,2.24 10,5 10,7.76 7.76,10 5,10 2.24,10 0,7.76 0,5 z"
       copytype="single_stretched"
       prop_scale="1"
       scale_y_rel="false"
       spacing="0"
       normal_offset="0"
       tang_offset="0"
       prop_units="false"
       vertical_pattern="false"
       fuse_tolerance="0" />
    <inkscape:path-effect
       effect="spiro"
       id="path-effect3466"
       is_visible="true" />
    <inkscape:path-effect
       effect="skeletal"
       id="path-effect3462"
       is_visible="true"
       pattern="M 0,5 C 0,2.24 2.24,0 5,0 7.76,0 10,2.24 10,5 10,7.76 7.76,10 5,10 2.24,10 0,7.76 0,5 z"
       copytype="single_stretched"
       prop_scale="1"
       scale_y_rel="false"
       spacing="0"
       normal_offset="0"
       tang_offset="0"
       prop_units="false"
       vertical_pattern="false"
       fuse_tolerance="0" />
    <inkscape:path-effect
       effect="spiro"
       id="path-effect3460"
       is_visible="true" />
    <inkscape:path-effect
       effect="skeletal"
       id="path-effect3456"
       is_visible="true"
       pattern="M 0,5 C 0,2.24 2.24,0 5,0 7.76,0 10,2.24 10,5 10,7.76 7.76,10 5,10 2.24,10 0,7.76 0,5 z"
       copytype="single_stretched"
       prop_scale="1"
       scale_y_rel="false"
       spacing="0"
       normal_offset="0"
       tang_offset="0"
       prop_units="false"
       vertical_pattern="false"
       fuse_tolerance="0" />
    <inkscape:path-effect
       effect="spiro"
       id="path-effect3454"
       is_visible="true" />
    <inkscape:path-effect
       effect="skeletal"
       id="path-effect3450"
       is_visible="true"
       pattern="M 0,5 C 0,2.24 2.24,0 5,0 7.76,0 10,2.24 10,5 10,7.76 7.76,10 5,10 2.24,10 0,7.76 0,5 z"
       copytype="single_stretched"
       prop_scale="1"
       scale_y_rel="false"
       spacing="0"
       normal_offset="0"
       tang_offset="0"
       prop_units="false"
       vertical_pattern="false"
       fuse_tolerance="0" />
    <inkscape:path-effect
       effect="spiro"
       id="path-effect3448"
       is_visible="true" />
    <inkscape:path-effect
       effect="skeletal"
       id="path-effect3444"
       is_visible="true"
       pattern="m -646.02408,177.11455 c 0,-2.76 2.24,-5 5,-5 2.76,0 5,2.24 5,5 0,2.76 -2.24,5 -5,5 -2.76,0 -5,-2.24 -5,-5 z"
       copytype="single_stretched"
       prop_scale="1"
       scale_y_rel="false"
       spacing="0"
       normal_offset="0"
       tang_offset="0"
       prop_units="false"
       vertical_pattern="false"
       fuse_tolerance="0" />
    <inkscape:path-effect
       effect="spiro"
       id="path-effect3442"
       is_visible="true" />
    <inkscape:path-effect
       effect="skeletal"
       id="path-effect3438"
       is_visible="true"
       pattern="M 0,5 C 0,2.24 2.24,0 5,0 7.76,0 10,2.24 10,5 10,7.76 7.76,10 5,10 2.24,10 0,7.76 0,5 z"
       copytype="single_stretched"
       prop_scale="1"
       scale_y_rel="false"
       spacing="0"
       normal_offset="0"
       tang_offset="0"
       prop_units="false"
       vertical_pattern="false"
       fuse_tolerance="0" />
    <inkscape:path-effect
       effect="spiro"
       id="path-effect3436"
       is_visible="true" />
    <inkscape:path-effect
       effect="skeletal"
       id="path-effect3432"
       is_visible="true"
       pattern="M 0,5 C 0,2.24 2.24,0 5,0 7.76,0 10,2.24 10,5 10,7.76 7.76,10 5,10 2.24,10 0,7.76 0,5 z"
       copytype="single_stretched"
       prop_scale="1"
       scale_y_rel="false"
       spacing="0"
       normal_offset="0"
       tang_offset="0"
       prop_units="false"
       vertical_pattern="false"
       fuse_tolerance="0" />
    <inkscape:path-effect
       effect="spiro"
       id="path-effect3430"
       is_visible="true" />
    <inkscape:path-effect
       effect="skeletal"
       id="path-effect3426"
       is_visible="true"
       pattern="M 0,5 C 0,2.24 2.24,0 5,0 7.76,0 10,2.24 10,5 10,7.76 7.76,10 5,10 2.24,10 0,7.76 0,5 z"
       copytype="single_stretched"
       prop_scale="1"
       scale_y_rel="false"
       spacing="0"
       normal_offset="0"
       tang_offset="0"
       prop_units="false"
       vertical_pattern="false"
       fuse_tolerance="0" />
    <inkscape:path-effect
       effect="spiro"
       id="path-effect3424"
       is_visible="true" />
    <inkscape:path-effect
       effect="skeletal"
       id="path-effect3408"
       is_visible="true"
       pattern="M 0,5 C 0,2.24 2.24,0 5,0 7.76,0 10,2.24 10,5 10,7.76 7.76,10 5,10 2.24,10 0,7.76 0,5 z"
       copytype="single_stretched"
       prop_scale="1"
       scale_y_rel="false"
       spacing="0"
       normal_offset="0"
       tang_offset="0"
       prop_units="false"
       vertical_pattern="false"
       fuse_tolerance="0" />
    <inkscape:path-effect
       effect="spiro"
       id="path-effect3406"
       is_visible="true" />
    <inkscape:path-effect
       effect="skeletal"
       id="path-effect3396"
       is_visible="true"
       pattern="M 0,5 C 0,2.24 2.24,0 5,0 7.76,0 10,2.24 10,5 10,7.76 7.76,10 5,10 2.24,10 0,7.76 0,5 z"
       copytype="single_stretched"
       prop_scale="1"
       scale_y_rel="false"
       spacing="0"
       normal_offset="0"
       tang_offset="0"
       prop_units="false"
       vertical_pattern="false"
       fuse_tolerance="0" />
    <inkscape:path-effect
       effect="spiro"
       id="path-effect3394"
       is_visible="true" />
    <inkscape:path-effect
       effect="skeletal"
       id="path-effect3390"
       is_visible="true"
       pattern="M 0,5 C 0,2.24 2.24,0 5,0 7.76,0 10,2.24 10,5 10,7.76 7.76,10 5,10 2.24,10 0,7.76 0,5 z"
       copytype="single_stretched"
       prop_scale="1"
       scale_y_rel="false"
       spacing="0"
       normal_offset="0"
       tang_offset="0"
       prop_units="false"
       vertical_pattern="false"
       fuse_tolerance="0" />
    <inkscape:path-effect
       effect="spiro"
       id="path-effect3388"
       is_visible="true" />
    <inkscape:path-effect
       effect="skeletal"
       id="path-effect3384"
       is_visible="true"
       pattern="m 166.26286,176.11863 c 0,-2.76 2.24,-5 5,-5 2.76,0 5,2.24 5,5 0,2.76 -2.24,5 -5,5 -2.76,0 -5,-2.24 -5,-5 z"
       copytype="single_stretched"
       prop_scale="1"
       scale_y_rel="false"
       spacing="0"
       normal_offset="0"
       tang_offset="0"
       prop_units="false"
       vertical_pattern="false"
       fuse_tolerance="0" />
    <inkscape:path-effect
       effect="spiro"
       id="path-effect3382"
       is_visible="true" />
    <inkscape:path-effect
       effect="skeletal"
       id="path-effect3354"
       is_visible="true"
       pattern="m 157.67657,174.09833 c 0,-2.76 2.24,-5 5,-5 2.76,0 5,2.24 5,5 0,2.76 -2.24,5 -5,5 -2.76,0 -5,-2.24 -5,-5 z"
       copytype="single_stretched"
       prop_scale="1"
       scale_y_rel="false"
       spacing="0"
       normal_offset="0"
       tang_offset="0"
       prop_units="false"
       vertical_pattern="false"
       fuse_tolerance="0" />
    <inkscape:path-effect
       effect="spiro"
       id="path-effect3352"
       is_visible="true" />
    <inkscape:path-effect
       effect="skeletal"
       id="path-effect3348"
       is_visible="true"
       pattern="m 169.29332,187.23031 c 0,-2.76 2.24,-5 5,-5 2.76,0 5,2.24 5,5 0,2.76 -2.24,5 -5,5 -2.76,0 -5,-2.24 -5,-5 z"
       copytype="single_stretched"
       prop_scale="1"
       scale_y_rel="false"
       spacing="0"
       normal_offset="0"
       tang_offset="0"
       prop_units="false"
       vertical_pattern="false"
       fuse_tolerance="0" />
    <inkscape:path-effect
       effect="spiro"
       id="path-effect3346"
       is_visible="true" />
    <inkscape:path-effect
       effect="skeletal"
       id="path-effect3336"
       is_visible="true"
       pattern="m 708.35496,-90.692464 c 0,-2.76 2.24,-5 5,-5 2.76,0 5,2.24 5,5 0,2.76 -2.24,5 -5,5 -2.76,0 -5,-2.24 -5,-5 z"
       copytype="single_stretched"
       prop_scale="1"
       scale_y_rel="false"
       spacing="0"
       normal_offset="0"
       tang_offset="0"
       prop_units="false"
       vertical_pattern="false"
       fuse_tolerance="0" />
    <inkscape:path-effect
       effect="spiro"
       id="path-effect3334"
       is_visible="true" />
    <inkscape:path-effect
       effect="skeletal"
       id="path-effect3330"
       is_visible="true"
       pattern="m 161.35269,174.15252 c 0,-2.76 2.24,-5 5,-5 2.76,0 5,2.24 5,5 0,2.76 -2.24,5 -5,5 -2.76,0 -5,-2.24 -5,-5 z"
       copytype="single_stretched"
       prop_scale="1"
       scale_y_rel="false"
       spacing="0"
       normal_offset="0"
       tang_offset="0"
       prop_units="false"
       vertical_pattern="false"
       fuse_tolerance="0" />
    <inkscape:path-effect
       effect="spiro"
       id="path-effect3328"
       is_visible="true" />
    <inkscape:path-effect
       effect="skeletal"
       id="path-effect3324"
       is_visible="true"
       pattern="M 0,5 C 0,2.24 2.24,0 5,0 7.76,0 10,2.24 10,5 10,7.76 7.76,10 5,10 2.24,10 0,7.76 0,5 z"
       copytype="single_stretched"
       prop_scale="1"
       scale_y_rel="false"
       spacing="0"
       normal_offset="0"
       tang_offset="0"
       prop_units="false"
       vertical_pattern="false"
       fuse_tolerance="0" />
    <inkscape:path-effect
       effect="spiro"
       id="path-effect3322"
       is_visible="true" />
    <inkscape:path-effect
       effect="spiro"
       id="path-effect3502-5"
       is_visible="true" />
    <inkscape:path-effect
       effect="skeletal"
       id="path-effect3504-8"
       is_visible="true"
       pattern="m -864.02908,-602.99893 c 0,-2.76 2.24,-5 5,-5 2.76,0 5,2.24 5,5 0,2.76 -2.24,5 -5,5 -2.76,0 -5,-2.24 -5,-5 z"
       copytype="single_stretched"
       prop_scale="1"
       scale_y_rel="false"
       spacing="0"
       normal_offset="0"
       tang_offset="0"
       prop_units="false"
       vertical_pattern="false"
       fuse_tolerance="0" />
    <inkscape:path-effect
       effect="spiro"
       id="path-effect3758-9"
       is_visible="true" />
    <inkscape:path-effect
       effect="skeletal"
       id="path-effect3760-3"
       is_visible="true"
       pattern="m -854.56831,-571.92138 c 0,-2.76 2.24,-5 5,-5 2.76,0 5,2.24 5,5 0,2.76 -2.24,5 -5,5 -2.76,0 -5,-2.24 -5,-5 z"
       copytype="single_stretched"
       prop_scale="1"
       scale_y_rel="false"
       spacing="0"
       normal_offset="0"
       tang_offset="0"
       prop_units="false"
       vertical_pattern="false"
       fuse_tolerance="0" />
  </defs>
  <sodipodi:namedview
     id="base"
     pagecolor="#ffffff"
     bordercolor="#666666"
     borderopacity="1.0"
     inkscape:pageopacity="0.0"
     inkscape:pageshadow="2"
     inkscape:zoom="0.98994949"
     inkscape:cx="377.04201"
     inkscape:cy="255.08889"
     inkscape:document-units="px"
     inkscape:current-layer="layer1"
     showgrid="false"
     inkscape:window-width="1366"
     inkscape:window-height="768"
     inkscape:window-x="0"
     inkscape:window-y="0"
     inkscape:window-maximized="1"
     fit-margin-top="0"
     fit-margin-left="30"
     fit-margin-right="0"
     fit-margin-bottom="0" />
  <metadata
     id="metadata3776">
    <rdf:RDF>
      <cc:Work
         rdf:about="">
        <dc:format>image/svg+xml</dc:format>
        <dc:type
           rdf:resource="http://purl.org/dc/dcmitype/StillImage" />
        <dc:title />
      </cc:Work>
    </rdf:RDF>
  </metadata>
  <g
     inkscape:label="Layer 1"
     inkscape:groupmode="layer"
     id="layer1"
     transform="translate(-161.2121,-168.59325)">
    <path
       style="fill:#000000;fill-rule:evenodd;stroke:none"
       d="m 136.06484,322.40583 c -0.36135,0.15319 -0.98266,-0.48226 -2.08577,-1.43375 -0.55156,-0.47575 -1.23392,-1.02682 -2.07981,-1.54982 -0.84589,-0.52301 -1.85837,-1.01993 -3.01557,-1.32763 -1.58301,-0.4329 -3.51482,-0.52946 -5.4651,-0.0358 -1.6084,0.40374 -3.26706,1.24925 -4.69298,2.50378 -1.20478,1.03042 -2.22964,2.41176 -2.98362,4.04613 -0.75398,1.63438 -1.23737,3.52253 -1.34289,5.45355 -0.15909,2.89039 0.61024,6.07 2.10023,9.09064 1.37718,2.78322 3.5,5.42999 6.07734,7.89583 2.35825,2.27648 5.16633,4.32053 8.28237,6.33591 3.11603,2.01539 6.53959,4.00325 10.05292,6.23401 2.23063,1.35122 4.71013,3.03602 7.03823,5.43529 0.16566,0.17072 0.3303,0.34484 0.49377,0.52247 2.57026,2.71055 4.26255,6.5331 4.30059,10.88821 -0.27027,4.47372 -2.31062,8.19834 -5.16723,10.67745 -2.86354,2.5146 -6.00865,4.01052 -8.95914,4.90135 -6.65877,2.1234 -13.43487,2.26422 -19.48889,1.06049 -6.05402,-1.20373 -11.38508,-3.74625 -15.62014,-6.95612 0,0 -1e-5,-1e-5 -1e-5,-1e-5 -4.455864,-3.40542 -7.59672,-7.43004 -9.719652,-11.25251 -2.122932,-3.82247 -3.238912,-7.44803 -3.776816,-10.44188 -0.537904,-2.99385 -0.509967,-5.36532 -0.300462,-6.95346 0.209505,-1.58813 0.589986,-2.40175 0.976294,-2.41199 0.386308,-0.0102 0.76056,0.77815 1.259512,2.19676 0.498952,1.41861 1.135738,3.47435 2.206032,5.95129 1.070294,2.47693 2.585427,5.38455 4.813646,8.33033 2.228216,2.94578 5.176786,5.93682 8.945546,8.27545 0,0 0,10e-6 0,10e-6 3.55949,2.23381 7.91556,3.89111 12.71115,4.54911 4.7956,0.658 10.02921,0.31667 14.92571,-1.45331 2.15877,-0.83066 4.11714,-1.72212 5.35003,-3.0027 1.10944,-1.19528 2.02478,-2.63081 1.89372,-3.7193 0.17381,-1.06966 -0.70632,-2.5555 -1.8254,-3.9974 -0.081,-0.0975 -0.16539,-0.19418 -0.25309,-0.29011 -1.23246,-1.34811 -3.08771,-2.52988 -5.13926,-3.89372 -3.3402,-2.11464 -6.81359,-4.21554 -10.16008,-6.53491 -3.34649,-2.31937 -6.56502,-4.85782 -9.4492,-7.76188 -3.14505,-3.18897 -5.7425,-6.88577 -7.49117,-10.88889 -1.92129,-4.38538 -2.61039,-9.12612 -2.06145,-13.55847 0.37583,-3.04731 1.41361,-5.8583 2.87607,-8.24114 1.46246,-2.38283 3.34921,-4.3384 5.45059,-5.79139 2.51446,-1.70525 5.26572,-2.5855 7.83867,-2.80732 3.13695,-0.26738 5.91029,0.48347 8.01311,1.61319 1.5457,0.83819 2.70138,1.8651 3.5469,2.8565 0.84552,0.9914 1.38379,1.94947 1.71723,2.75562 0.33345,0.80615 0.46446,1.46243 0.47792,1.92389 0.0135,0.46147 -0.0892,0.7296 -0.26985,0.8062 z"
       id="path3320"
       inkscape:path-effect="#path-effect3322;#path-effect3324"
       inkscape:original-d="m 136.06484,322.40583 c 0.007,-4.08184 -2.6547,-5.42248 -6.32668,-6.32671 -8.78284,-2.1628 -24.72871,1.66961 -19.33151,13.59719 5.77133,12.7544 18.59673,23.83635 27.83738,34.15027 3.44426,3.8443 7.2184,7.82995 9.52517,12.5136 4.12051,8.36629 -3.30077,11.59546 -10.68506,11.1504 -11.29308,-0.68065 -58.767781,-14.50604 -46.395636,-32.40256"
       inkscape:connector-curvature="0"
       transform="translate(161.2121,168.59325)" />
    <path
       style="fill:#000000;fill-rule:evenodd;stroke:none"
       d="m 482.82147,547.14047 c -0.4865,0.42752 -1.67735,0.0434 -3.36939,-1.16781 -1.69204,-1.21118 -3.87949,-3.26106 -6.16927,-6.1862 -2.28978,-2.92513 -4.67438,-6.73395 -6.66946,-11.3286 -1.99507,-4.59465 -3.59149,-9.977 -4.3394,-15.83609 0,0 0,-10e-6 0,-10e-6 -0.2247,-1.53094 -0.36185,-3.24721 -0.27149,-5.12218 0.0479,-0.99314 0.15947,-2.0183 0.35103,-3.06726 0.50675,-2.44984 1.51457,-4.68996 2.88063,-6.60636 1.36606,-1.91641 3.08983,-3.50891 5.03084,-4.70472 2.17131,-1.3171 4.50473,-2.07814 6.79601,-2.35618 2.29128,-0.27804 4.54003,-0.0737 6.59907,0.51181 2.50785,0.73028 4.61133,1.98927 6.25988,3.46995 1.64855,1.48067 2.84386,3.18218 3.63409,4.86928 0.85409,1.84777 1.20304,3.61619 1.26803,5.14003 0.065,1.52383 -0.15179,2.80596 -0.46561,3.79546 -0.31382,0.9895 -0.72312,1.68971 -1.10809,2.11653 -0.38498,0.42682 -0.74494,0.58299 -1.04235,0.50446 -0.29741,-0.0785 -0.52196,-0.38633 -0.72269,-0.864 -0.20074,-0.47767 -0.38045,-1.12745 -0.62177,-1.90073 -0.24132,-0.77327 -0.54614,-1.67319 -0.99536,-2.62045 -0.44922,-0.94726 -1.04377,-1.94482 -1.84174,-2.83593 -0.72255,-0.82091 -1.64038,-1.58662 -2.71448,-2.19421 -1.07411,-0.60758 -2.30489,-1.058 -3.56399,-1.19831 -1.02919,-0.12824 -2.14271,-0.0608 -3.23434,0.20645 -1.09163,0.26721 -2.16119,0.73376 -3.05073,1.39498 -1.61449,1.16093 -2.94368,3.15672 -3.31286,5.21758 -0.1076,0.45705 -0.15997,0.96558 -0.17461,1.52343 -0.0276,1.05318 0.0777,2.258 0.18395,3.56973 0,0 0,0 0,0 0.51749,5.01 1.55729,9.70487 2.81407,13.89164 1.25678,4.18677 2.72786,7.86544 4.06855,10.93998 1.34068,3.07454 2.54749,5.55143 3.28101,7.38264 0.73353,1.83122 0.98697,3.02757 0.50047,3.45509 z"
       id="path3344"
       inkscape:path-effect="#path-effect3346;#path-effect3348"
       inkscape:original-d="m 482.82147,547.14047 c -8.12126,-9.58466 -12.72536,-22.91971 -15.60581,-35.09403 -0.3284,-1.38802 -1.76407,-5.56773 0.0351,-6.6413 3.2919,-1.96424 20.87701,4.64085 24.95523,5.76744"
       inkscape:connector-curvature="0" />
    <path
       style="fill:#000000;fill-rule:evenodd;stroke:none"
       d="m 538.93532,503.21382 c -0.32701,0.0573 -0.68424,-0.18892 -1.14315,-0.52129 -0.45891,-0.33238 -1.04978,-0.76841 -1.75551,-0.98027 0,0 0,0 0,0 -0.53175,-0.18321 -1.20978,-0.24468 -2.01609,-0.25264 -0.66014,-5e-5 -1.44077,0.11184 -2.41771,0.23168 0,0 0,0 0,0 -2.11336,0.29922 -4.51789,0.77814 -6.99235,1.62957 -2.47447,0.85144 -5.01956,2.07474 -7.24814,3.887 -1.69321,1.37277 -3.26856,3.10338 -4.48659,5.07888 -1.21803,1.9755 -2.07767,4.19366 -2.26205,6.47422 -0.0613,0.53436 -0.0872,1.07983 -0.0787,1.63211 0.0282,1.82991 0.43207,3.66478 1.10395,5.34805 0.67189,1.68326 1.61174,3.21394 2.73132,4.47866 1.52397,1.75633 3.4754,3.09625 5.49592,4.02219 2.02052,0.92594 4.1101,1.43681 6.05968,1.60158 2.00717,0.1758 3.91964,-0.007 5.60807,-0.33535 1.68842,-0.32787 3.1563,-0.80109 4.37777,-1.24034 1.22148,-0.43925 2.20173,-0.84449 2.95231,-1.06563 0.75059,-0.22115 1.27676,-0.25642 1.54748,0.002 0.27072,0.25872 0.27092,0.80217 -0.0595,1.59073 -0.33039,0.78857 -0.99608,1.82259 -2.09226,2.94882 -1.09617,1.12623 -2.62838,2.34431 -4.64812,3.3867 -2.01973,1.04239 -4.53163,1.9075 -7.46573,2.22797 -2.86257,0.30566 -6.06753,0.0679 -9.30483,-0.95491 -3.2373,-1.02282 -6.50531,-2.83395 -9.31875,-5.56504 -2.04867,-2.01311 -3.76829,-4.46585 -4.9859,-7.2334 -1.21762,-2.76755 -1.9322,-5.84923 -1.98422,-9.05323 -0.0157,-0.96698 0.029,-1.934 0.13394,-2.89479 0.51738,-4.03243 2.00962,-7.6621 4.05946,-10.68548 2.04985,-3.02337 4.65404,-5.44035 7.4359,-7.18978 3.57984,-2.24017 7.25826,-3.4462 10.61606,-3.99771 3.3578,-0.55152 6.39686,-0.45361 8.91881,-0.0663 0,0 10e-6,0 10e-6,0 1.15978,0.16047 2.36348,0.43163 3.46265,0.84809 1.38039,0.50975 2.51844,1.36725 3.28066,2.27683 0,0 0,0 0,0 0.49804,0.61267 0.79557,1.2257 0.96519,1.77002 0.16962,0.54431 0.21194,1.02095 0.18636,1.40326 -0.0512,0.76464 -0.34896,1.14012 -0.67597,1.19746 z"
       id="path3350"
       inkscape:path-effect="#path-effect3352;#path-effect3354"
       inkscape:original-d="m 538.93532,503.21382 c -0.56237,-0.97871 -0.99606,-2.04363 -1.68712,-2.93615 -0.97075,-1.25376 -4.21176,-1.54827 -5.58856,-1.57294 -11.01067,-0.19729 -22.44082,9.55748 -26.00968,19.50445 -5.32107,14.83071 5.85426,25.32054 20.38597,21.39198 5.10161,-1.37919 9.7897,-3.8371 14.37561,-6.39662"
       inkscape:connector-curvature="0" />
    <path
       style="fill:#000000;fill-rule:evenodd;stroke:none"
       d="m 567.38035,515.61553 c 0.17762,-0.19162 0.53049,-0.2055 1.03677,-0.11608 0.50629,0.0894 1.17008,0.28062 1.99609,0.46344 0.826,0.18283 1.81932,0.35703 2.94102,0.38935 1.1217,0.0323 2.37669,-0.0766 3.6063,-0.48635 1.10789,-0.355 2.24225,-0.96708 3.25758,-1.83193 1.01534,-0.86485 1.91348,-1.9834 2.43405,-3.25083 0.51377,-1.19718 0.76329,-2.60626 0.66827,-4.00642 -0.0841,-1.29169 -0.48449,-2.64126 -1.16367,-3.84599 -0.59327,-1.0949 -1.49685,-2.09965 -2.60299,-2.92253 -1.10613,-0.82288 -2.41449,-1.46391 -3.77149,-1.80336 -2.54206,-0.66155 -5.62885,-0.25577 -8.20758,1.0785 -0.89293,0.45481 -1.74555,1.04444 -2.53555,1.74217 -1.44468,1.27595 -2.63573,2.87221 -3.47891,4.57302 -1.39641,2.79639 -1.85164,6.07668 -1.59885,9.14729 0.27623,3.39062 1.50637,6.64039 3.13767,9.42099 1.22651,2.0753 2.70528,3.89203 4.27295,5.43054 1.56768,1.5385 3.22462,2.79918 4.85015,3.81107 0,0 0,0 0,0 1.77148,1.10504 3.5178,1.9236 5.10711,2.55328 1.58931,0.62968 3.02337,1.07165 4.22066,1.42741 1.19729,0.35576 2.15969,0.627 2.82837,0.89752 0.66868,0.27052 1.04493,0.54245 1.06823,0.85309 0.0233,0.31064 -0.30878,0.64762 -0.99889,0.96983 -0.69011,0.32221 -1.73988,0.62841 -3.13338,0.81128 -1.39351,0.18288 -3.13274,0.24084 -5.15549,0.0217 -2.02274,-0.21916 -4.3307,-0.7172 -6.78717,-1.66597 0,0 0,0 -10e-6,0 -2.25221,-0.87181 -4.61318,-2.12001 -6.91102,-3.82391 -2.29784,-1.7039 -4.53224,-3.86465 -6.47503,-6.50705 -2.60685,-3.52816 -4.67081,-7.96245 -5.42905,-13.05257 -0.68865,-4.64736 -0.14846,-9.75275 2.03202,-14.53107 1.34545,-2.93402 3.32896,-5.63996 5.86723,-7.85265 1.38802,-1.20999 2.91858,-2.25223 4.55924,-3.09935 4.83879,-2.47733 10.3863,-2.93744 15.36524,-1.49593 2.70632,0.79676 5.12575,2.16605 7.12311,3.91517 1.99736,1.74912 3.57258,3.87761 4.6477,6.21019 1.14549,2.54382 1.61446,5.24251 1.48759,7.82911 -0.14152,2.81454 -1.01128,5.40754 -2.34328,7.56731 -1.46229,2.33884 -3.39473,4.04041 -5.40604,5.16983 -2.01131,1.12942 -4.10235,1.68901 -6.02916,1.82464 -2.14512,0.13588 -3.99902,-0.24665 -5.4847,-0.81266 -1.48568,-0.566 -2.60829,-1.3155 -3.4073,-2.02599 -0.79901,-0.71049 -1.27937,-1.38261 -1.5201,-1.90087 -0.24073,-0.51825 -0.24531,-0.88359 -0.0677,-1.07521 z"
       id="path3380"
       inkscape:path-effect="#path-effect3382;#path-effect3384"
       inkscape:original-d="m 567.38035,515.61553 c 6.09667,2.6429 13.48609,1.24381 18.5934,-3.00607 10.2883,-8.56106 5.30296,-23.39377 -8.8925,-19.05004 -12.18614,3.72888 -25.37027,20.37717 -17.53895,32.99677 5.48927,8.84557 16.23808,11.66802 25.90423,12.58352"
       inkscape:connector-curvature="0" />
    <path
       style="fill:#000000;fill-rule:evenodd;stroke:none"
       d="m 462.13478,356.06674 c -0.17842,0.29392 -0.67865,0.40073 -1.48069,0.22219 -0.80204,-0.17854 -1.91068,-0.64811 -3.14173,-1.6008 -1.03904,-0.81902 -2.13946,-1.96922 -3.13898,-3.45706 -0.99952,-1.48784 -1.89473,-3.31668 -2.54144,-5.36292 -0.47452,-1.45671 -0.86306,-3.00822 -1.19148,-4.60535 -0.32843,-1.59714 -0.59637,-3.23968 -0.87422,-4.86702 0,0 0,0 0,0 -0.71381,-4.12953 -1.62657,-8.68137 -2.71944,-13.56749 -1.09286,-4.88612 -2.36489,-10.10833 -3.67844,-15.58417 -0.90697,-3.78093 -1.78267,-7.49308 -2.57144,-11.09528 -0.48321,-2.06867 -0.93021,-4.23967 -1.20114,-6.46548 -0.27093,-2.22582 -0.36549,-4.50611 -0.19356,-6.78678 0.20971,-2.52637 0.86703,-5.0056 1.93699,-7.24892 0,-10e-6 0,-10e-6 0,-10e-6 1.18266,-2.48733 2.96392,-4.56518 5.03733,-6.05556 1.87574,-1.31636 3.88003,-2.04286 5.77306,-2.33696 1.89304,-0.2941 3.67593,-0.15718 5.22243,0.23974 1.7225,0.45223 3.09346,1.20637 4.13713,2.00908 1.04366,0.8027 1.76344,1.65485 2.23654,2.40464 0.4731,0.74979 0.70262,1.39851 0.76941,1.87926 0.0668,0.48075 -0.0271,0.79482 -0.23629,0.94044 -0.4184,0.29123 -1.2403,-0.12171 -2.51494,-0.66128 -0.63733,-0.26979 -1.3969,-0.56723 -2.27234,-0.79103 -0.87544,-0.22381 -1.8699,-0.37518 -2.90426,-0.31904 -0.92665,0.0416 -1.92285,0.24835 -2.89382,0.65034 -0.97098,0.40198 -1.91818,0.99934 -2.65368,1.78307 -0.86953,0.87647 -1.56738,2.11469 -2.04698,3.52303 0,0 0,10e-6 0,10e-6 -0.4379,1.2905 -0.62198,2.80405 -0.62706,4.44515 -0.0226,1.49429 0.19281,3.09925 0.55329,4.84115 0.36048,1.74189 0.8657,3.62102 1.37369,5.65493 0.93467,3.53108 1.89216,7.2258 2.81002,11.05541 1.32932,5.54636 2.46743,10.97438 3.29151,16.13469 0.82408,5.16031 1.33271,10.0514 1.51911,14.49564 0,10e-6 0,10e-6 0,10e-6 0.0768,1.7502 0.0943,3.35256 0.13856,4.82168 0.0442,1.46912 0.11486,2.80533 0.25215,4.02856 0.20637,1.69057 0.48616,3.20037 0.85177,4.48907 0.36562,1.2887 0.81496,2.3604 1.27468,3.25263 0.52841,1.05621 1.06006,1.88422 1.39821,2.5281 0.33816,0.64387 0.48447,1.11241 0.30605,1.40633 z"
       id="path3386"
       inkscape:path-effect="#path-effect3388;#path-effect3390"
       inkscape:original-d="m 462.13478,356.06674 c -1.05445,-0.88551 -2.26577,-1.61232 -3.16334,-2.65652 -1.53791,-1.78913 -4.4436,-14.88831 -5.13164,-17.44215 -3.62053,-13.43867 -6.83663,-27.10317 -8.29498,-40.96634 -0.62743,-5.96442 -2.7714,-18.20366 3.16334,-22.51051 4.54154,-3.29581 11.28335,0.3378 15.57066,2.23707"
       inkscape:connector-curvature="0"
       transform="translate(161.2121,168.59325)" />
    <path
       style="fill:#000000;fill-rule:evenodd;stroke:none"
       d="m 419.81633,311.3603 c -0.20839,-0.46916 0.0377,-1.1286 0.73631,-1.91488 0.69863,-0.78629 1.85224,-1.69767 3.45348,-2.59524 2.30397,-1.27819 5.50302,-2.48466 9.28091,-3.34357 3.7779,-0.8589 8.12074,-1.35991 12.57649,-1.66212 1.55481,-0.11444 3.14754,-0.21582 4.76967,-0.3027 8.68691,-0.46529 16.58304,-0.43387 22.34621,0.0517 5.76318,0.48557 9.39429,1.43547 9.50619,2.81093 0.1119,1.37546 -3.32371,2.91802 -8.99005,4.24021 -5.66635,1.32219 -13.56434,2.41348 -22.32749,2.88286 -1.63637,0.0876 -3.24517,0.15074 -4.81719,0.19063 -4.49673,0.13966 -8.54501,0.0822 -12.02082,0.1303 -3.47582,0.048 -6.39555,0.19915 -8.7214,0.31687 -1.62016,0.0737 -2.95755,0.11596 -3.94795,0.0142 -0.9904,-0.10177 -1.63597,-0.35002 -1.84436,-0.81918 z"
       id="path3392"
       inkscape:path-effect="#path-effect3394;#path-effect3396"
       inkscape:original-d="m 419.81633,311.3603 c 1.66369,-0.61752 3.29013,-1.34656 4.99105,-1.85257 6.68689,-1.98931 14.39977,-2.10479 21.29981,-2.72643 12.0508,-1.08569 24.26177,-2.37689 36.3784,-2.37689"
       inkscape:connector-curvature="0"
       transform="translate(161.2121,168.59325)" />
    <path
       style="fill:#000000;fill-rule:evenodd;stroke:none"
       d="m 363.41982,500.69634 c -0.14524,0.32795 -0.87656,0.36618 -2.1145,0.27572 -1.23794,-0.0905 -2.99222,-0.3024 -5.2062,-0.34079 -2.21397,-0.0384 -4.89924,0.1018 -7.85699,0.75808 -2.95776,0.65628 -6.19713,1.83149 -9.21854,3.84706 0,0 0,0 0,0 -2.83764,1.86841 -5.52225,4.51968 -7.62038,7.83441 -2.09813,3.31473 -3.61028,7.29311 -3.9346,11.49171 0,10e-6 0,10e-6 0,10e-6 -0.29915,3.50542 0.23477,7.25516 1.588,10.81994 1.35324,3.56477 3.52442,6.94215 6.42595,9.55005 0.955,0.87365 2.00081,1.67149 3.11987,2.38453 2.69664,1.71825 5.73075,2.88974 8.79766,3.49154 3.06692,0.60179 6.16561,0.63345 9.05347,0.0952 4.55099,-0.8252 8.73396,-2.95767 11.95233,-5.7658 3.63646,-3.16304 6.14671,-7.24506 7.49012,-11.27493 0.83246,-2.48632 1.24085,-4.99277 1.34092,-7.35906 0.10008,-2.3663 -0.10798,-4.59348 -0.50312,-6.60289 -0.43592,-2.22778 -1.10194,-4.20361 -1.80655,-5.89824 -0.70461,-1.69462 -1.44841,-3.11074 -2.08518,-4.26758 -0.63677,-1.15684 -1.16677,-2.05733 -1.48252,-2.72642 -0.31576,-0.6691 -0.41679,-1.10935 -0.23574,-1.30963 0.18105,-0.20028 0.63882,-0.15291 1.34382,0.17402 0.70501,0.32694 1.65762,0.93559 2.76336,1.89499 1.10575,0.9594 2.36518,2.2724 3.61157,4.00719 1.24639,1.7348 2.48011,3.89431 3.45508,6.50239 0.87779,2.35359 1.53539,5.0584 1.7819,8.03876 0.24652,2.98037 0.0811,6.23733 -0.69386,9.60351 -1.26092,5.45249 -4.13577,11.12206 -8.86753,15.76794 -4.1981,4.11267 -9.77373,7.30638 -16.15568,8.68513 -4.12142,0.87476 -8.47548,0.955 -12.77249,0.19037 -4.297,-0.76463 -8.53574,-2.37427 -12.36687,-4.82634 -1.58985,-1.01757 -3.08842,-2.16655 -4.4764,-3.4341 -4.1603,-3.84576 -7.1352,-8.60114 -8.87966,-13.59438 -1.74445,-4.99323 -2.25891,-10.22111 -1.63443,-15.15683 0,0 0,0 0,0 0.78099,-5.90287 3.1352,-11.12999 6.24168,-15.29952 3.10649,-4.16954 6.9617,-7.2842 10.91551,-9.3265 0,0 1e-5,0 1e-5,0 4.236,-2.16346 8.44357,-3.06972 12.10892,-3.27189 3.66535,-0.20216 6.79753,0.29368 9.23378,0.99494 2.43625,0.70126 4.1884,1.6026 5.2849,2.35816 1.0965,0.75557 1.54763,1.36127 1.40239,1.68922 z"
       id="path3440"
       inkscape:path-effect="#path-effect3442;#path-effect3444"
       inkscape:original-d="m 363.41982,500.69634 c -37.70726,-8.8937 -44.54709,51.78591 -6.0118,54.94218 33.5486,2.74783 43.3897,-35.17691 13.7158,-49.93924"
       inkscape:connector-curvature="0" />
    <path
       style="fill:#000000;fill-rule:evenodd;stroke:none"
       d="m 662.62636,467.88313 c 0.50985,0.3231 0.12656,1.96404 -0.85784,4.71964 -0.9844,2.7556 -2.56175,6.63604 -4.28915,11.51882 -0.90869,2.60581 -1.86809,5.48094 -2.65403,8.56547 -0.78593,3.08452 -1.39901,6.37773 -1.47739,9.81145 -0.0492,2.73981 0.19958,5.61669 0.8939,8.3817 0.69431,2.76501 1.83414,5.4171 3.59841,7.61805 2.31151,2.99756 5.75578,5.4334 9.53523,6.29154 0.42406,0.10665 0.8562,0.19327 1.29492,0.26031 3.75146,0.57321 7.78711,-0.3009 11.16688,-2.00604 4.13683,-2.07925 7.45506,-5.6236 9.81829,-9.4233 3.21346,-5.03144 4.55037,-10.65721 5.22153,-15.82803 0.67116,-5.17082 0.66976,-9.88837 0.6392,-13.64055 -0.0491,-3.20704 -0.13108,-5.7606 -0.0688,-7.54248 0.0623,-1.78188 0.27244,-2.79445 0.72306,-2.9012 0.45062,-0.10675 1.11424,0.70102 1.89477,2.35373 0.78053,1.65272 1.67473,4.15298 2.48289,7.42405 0.97455,3.84308 1.85463,8.87282 1.75446,14.82154 -0.0501,2.97437 -0.35508,6.17147 -1.08324,9.50426 -0.72815,3.33279 -1.88001,6.80146 -3.65666,10.27529 -2.74226,5.23851 -7.09034,10.24351 -13.09452,13.59855 -4.99377,2.78202 -11.0808,4.1248 -17.2552,3.2321 -0.72207,-0.1044 -1.44098,-0.23875 -2.15489,-0.40327 -6.31928,-1.54826 -11.60137,-5.38723 -15.06605,-10.2472 -2.50198,-3.60256 -4.03105,-7.49663 -4.83071,-11.33202 -0.79967,-3.83539 -0.87115,-7.61143 -0.45365,-11.08596 0.5009,-4.27906 1.57271,-8.09413 2.83742,-11.47249 1.2647,-3.37835 2.72277,-6.32121 4.13763,-8.86896 2.63086,-4.7837 5.16348,-8.34608 7.11604,-10.63451 1.95257,-2.28842 3.31768,-3.31359 3.82753,-2.99049 z"
       id="path3756"
       inkscape:path-effect="#path-effect3758;#path-effect3760"
       inkscape:original-d="m 662.62636,467.88313 c -4.1749,4.12481 -5.69984,9.70525 -8.04528,14.93173 -6.20705,13.83151 -10.54501,24.70951 -0.6649,38.56805 2.97219,4.16901 7.09393,7.65007 12.30064,8.26937 18.77814,2.23352 31.72954,-30.78137 31.81543,-45.83304 0.0203,-3.56355 -0.59962,-6.80615 -1.86171,-10.11073"
       inkscape:connector-curvature="0" />
    <path
       style="fill:#000000;fill-rule:evenodd;stroke:none"
       d="m 412.08444,493.54142 c 0.50985,0.3231 0.12656,1.96404 -0.85784,4.71964 -0.98439,2.75561 -2.56175,6.63605 -4.28915,11.51882 -0.90869,2.60581 -1.86809,5.48094 -2.65403,8.56547 -0.78593,3.08452 -1.39901,6.37773 -1.47739,9.81145 -0.0492,2.73981 0.19958,5.61669 0.8939,8.3817 0.69432,2.76501 1.83414,5.4171 3.59841,7.61805 2.31151,2.99755 5.75578,5.4334 9.53523,6.29154 0.42406,0.10664 0.8562,0.19327 1.29492,0.2603 3.75146,0.57322 7.78711,-0.30089 11.16688,-2.00603 4.13682,-2.07926 7.45505,-5.6236 9.81829,-9.4233 3.21346,-5.03144 4.55036,-10.65721 5.22153,-15.82803 0.67116,-5.17082 0.66976,-9.88837 0.63919,-13.64055 -0.0491,-3.20704 -0.13108,-5.7606 -0.0688,-7.54248 0.0623,-1.78188 0.27244,-2.79445 0.72306,-2.9012 0.45062,-0.10675 1.11424,0.70102 1.89477,2.35373 0.78053,1.65272 1.67473,4.15298 2.48289,7.42405 0.97455,3.84308 1.85463,8.87282 1.75446,14.82154 -0.0501,2.97437 -0.35508,6.17147 -1.08323,9.50426 -0.72816,3.33279 -1.88002,6.80146 -3.65666,10.27529 -2.74226,5.23851 -7.09035,10.24351 -13.09453,13.59855 -4.99376,2.78202 -11.0808,4.12481 -17.2552,3.2321 -0.72207,-0.1044 -1.44098,-0.23875 -2.15489,-0.40327 -6.31928,-1.54826 -11.60137,-5.38723 -15.06605,-10.2472 -2.50198,-3.60256 -4.03105,-7.49662 -4.83071,-11.33202 -0.79967,-3.83539 -0.87115,-7.61143 -0.45365,-11.08596 0.50089,-4.27906 1.57271,-8.09413 2.83742,-11.47249 1.2647,-3.37835 2.72277,-6.32121 4.13763,-8.86896 2.63086,-4.7837 5.16348,-8.34608 7.11604,-10.6345 1.95257,-2.28843 3.31768,-3.3136 3.82753,-2.9905 z"
       id="path3756-9"
       inkscape:path-effect="#path-effect3786;#path-effect3788"
       inkscape:original-d="m 412.08444,493.54142 c -4.1749,4.12481 -5.69984,9.70525 -8.04528,14.93173 -6.20705,13.83151 -10.54501,24.70951 -0.6649,38.56805 2.97219,4.16901 7.09393,7.65007 12.30064,8.26937 18.77814,2.23352 31.72954,-30.78137 31.81543,-45.83304 0.0203,-3.56355 -0.59962,-6.80615 -1.86171,-10.11073"
       inkscape:connector-curvature="0" />
  </g>
</svg>
