<?xml version="1.0" encoding="UTF-8" standalone="no"?>
<!-- Created with Inkscape (http://www.inkscape.org/) -->

<svg
   xmlns:dc="http://purl.org/dc/elements/1.1/"
   xmlns:cc="http://creativecommons.org/ns#"
   xmlns:rdf="http://www.w3.org/1999/02/22-rdf-syntax-ns#"
   xmlns:svg="http://www.w3.org/2000/svg"
   xmlns="http://www.w3.org/2000/svg"
   xmlns:sodipodi="http://sodipodi.sourceforge.net/DTD/sodipodi-0.dtd"
   xmlns:inkscape="http://www.inkscape.org/namespaces/inkscape"
   width="66.671875"
   height="65.140411"
   id="svg2"
   version="1.1"
   inkscape:version="0.48.1 r9760"
   sodipodi:docname="spanworm-logo.svg"
   inkscape:export-filename="/home/pdurbin/gr/wiki/spanworm.com/spanworm-logo.png"
   inkscape:export-xdpi="156.27048"
   inkscape:export-ydpi="156.27048">
  <defs
     id="defs4">
    <inkscape:path-effect
       effect="skeletal"
       id="path-effect3581"
       is_visible="true"
       pattern="M 0,5 C 0,2.24 2.24,0 5,0 7.76,0 10,2.24 10,5 10,7.76 7.76,10 5,10 2.24,10 0,7.76 0,5 z"
       copytype="single_stretched"
       prop_scale="1"
       scale_y_rel="false"
       spacing="0"
       normal_offset="0"
       tang_offset="0"
       prop_units="false"
       vertical_pattern="false"
       fuse_tolerance="0" />
    <inkscape:path-effect
       effect="spiro"
       id="path-effect3579"
       is_visible="true" />
    <inkscape:path-effect
       effect="skeletal"
       id="path-effect3563"
       is_visible="true"
       pattern="m 9.0332395,7.2731269 c 0,-2.76 2.2400005,-5 5.0000005,-5 2.76,0 5,2.24 5,5 0,2.7600001 -2.24,5.0000011 -5,5.0000011 -2.76,0 -5.0000005,-2.240001 -5.0000005,-5.0000011 z"
       copytype="single_stretched"
       prop_scale="1"
       scale_y_rel="false"
       spacing="0"
       normal_offset="0"
       tang_offset="0"
       prop_units="false"
       vertical_pattern="false"
       fuse_tolerance="0" />
    <inkscape:path-effect
       effect="spiro"
       id="path-effect3561"
       is_visible="true" />
    <inkscape:path-effect
       effect="skeletal"
       id="path-effect3533"
       is_visible="true"
       pattern="m 22,23.826592 c 0,-2.76 2.24,-5 5,-5 2.76,0 5,2.24 5,5 0,2.76 -2.24,5 -5,5 -2.76,0 -5,-2.24 -5,-5 z"
       copytype="single_stretched"
       prop_scale="1"
       scale_y_rel="false"
       spacing="0"
       normal_offset="0"
       tang_offset="0"
       prop_units="false"
       vertical_pattern="false"
       fuse_tolerance="0" />
    <inkscape:path-effect
       effect="spiro"
       id="path-effect3531"
       is_visible="true" />
    <inkscape:path-effect
       effect="skeletal"
       id="path-effect3521"
       is_visible="true"
       pattern="M 0,5 C 0,2.24 2.24,0 5,0 7.76,0 10,2.24 10,5 10,7.76 7.76,10 5,10 2.24,10 0,7.76 0,5 z"
       copytype="single_stretched"
       prop_scale="1"
       scale_y_rel="false"
       spacing="0"
       normal_offset="0"
       tang_offset="0"
       prop_units="false"
       vertical_pattern="false"
       fuse_tolerance="0" />
    <inkscape:path-effect
       effect="spiro"
       id="path-effect3519"
       is_visible="true" />
    <inkscape:path-effect
       effect="skeletal"
       id="path-effect3485"
       is_visible="true"
       pattern="m -132,1 c 0,-2.76 2.24,-5 5,-5 2.76,0 5,2.24 5,5 0,2.76 -2.24,5 -5,5 -2.76,0 -5,-2.24 -5,-5 z"
       copytype="single_stretched"
       prop_scale="1"
       scale_y_rel="false"
       spacing="0"
       normal_offset="0"
       tang_offset="0"
       prop_units="false"
       vertical_pattern="false"
       fuse_tolerance="0" />
    <inkscape:path-effect
       effect="spiro"
       id="path-effect3483"
       is_visible="true" />
    <inkscape:path-effect
       effect="skeletal"
       id="path-effect3347"
       is_visible="true"
       pattern="m -52.214286,5.7142861 c 0,-2.7600004 2.24,-5.00000037 5,-5.00000037 2.76,0 5,2.23999997 5,5.00000037 0,2.76 -2.24,4.9999999 -5,4.9999999 -2.76,0 -5,-2.2399999 -5,-4.9999999 z"
       copytype="single_stretched"
       prop_scale="1"
       scale_y_rel="false"
       spacing="0"
       normal_offset="0"
       tang_offset="0"
       prop_units="false"
       vertical_pattern="false"
       fuse_tolerance="0" />
    <inkscape:path-effect
       effect="spiro"
       id="path-effect3345"
       is_visible="true" />
    <inkscape:path-effect
       effect="skeletal"
       id="path-effect3335"
       is_visible="true"
       pattern="m -60,13 c 0,-2.76 2.24,-5 5,-5 2.76,0 5,2.24 5,5 0,2.76 -2.24,5 -5,5 -2.76,0 -5,-2.24 -5,-5 z"
       copytype="single_stretched"
       prop_scale="1"
       scale_y_rel="false"
       spacing="0"
       normal_offset="0"
       tang_offset="0"
       prop_units="false"
       vertical_pattern="false"
       fuse_tolerance="0" />
    <inkscape:path-effect
       effect="spiro"
       id="path-effect3333"
       is_visible="true" />
    <inkscape:path-effect
       effect="skeletal"
       id="path-effect3311"
       is_visible="true"
       pattern="M -50,5 C -50,2.24 -47.76,-2.1051683e-8 -45,-2.1051683e-8 -42.24,-2.1051683e-8 -40,2.24 -40,5 c 0,2.76 -2.24,5 -5,5 -2.76,0 -5,-2.24 -5,-5 z"
       copytype="single_stretched"
       prop_scale="1"
       scale_y_rel="false"
       spacing="0"
       normal_offset="0"
       tang_offset="0"
       prop_units="false"
       vertical_pattern="false"
       fuse_tolerance="0" />
    <inkscape:path-effect
       effect="spiro"
       id="path-effect3309"
       is_visible="true" />
  </defs>
  <sodipodi:namedview
     id="base"
     pagecolor="#ffffff"
     bordercolor="#666666"
     borderopacity="1.0"
     inkscape:pageopacity="0.0"
     inkscape:pageshadow="2"
     inkscape:zoom="0.30244681"
     inkscape:cx="-24.248901"
     inkscape:cy="30.457801"
     inkscape:document-units="px"
     inkscape:current-layer="layer1"
     showgrid="false"
     inkscape:snap-bbox="true"
     inkscape:window-width="1366"
     inkscape:window-height="721"
     inkscape:window-x="0"
     inkscape:window-y="26"
     inkscape:window-maximized="1"
     fit-margin-top="0"
     fit-margin-left="0"
     fit-margin-right="0"
     fit-margin-bottom="0" />
  <metadata
     id="metadata7">
    <rdf:RDF>
      <cc:Work
         rdf:about="">
        <dc:format>image/svg+xml</dc:format>
        <dc:type
           rdf:resource="http://purl.org/dc/dcmitype/StillImage" />
        <dc:title></dc:title>
      </cc:Work>
    </rdf:RDF>
  </metadata>
  <g
     inkscape:label="Layer 1"
     inkscape:groupmode="layer"
     id="layer1"
     transform="translate(-421.24257,-370.47461)">
    <path
       style="fill:#000000;fill-rule:evenodd;stroke:none"
       d="m 444.42753,433.50092 c -0.19293,-0.34156 0.0541,-0.89273 0.47744,-1.68191 0.42334,-0.78918 1.03161,-1.84771 1.40293,-3.18479 0.32855,-1.17326 0.47981,-2.61061 0.1765,-4.0384 -0.23927,-1.32317 -0.98295,-2.76572 -2.03054,-4.32492 -0.92384,-1.33961 -2.21721,-2.72259 -3.70701,-4.40418 -10e-6,0 -10e-6,0 -10e-6,0 -1.63051,-1.79533 -3.37938,-3.7802 -5.10786,-6.05199 -1.72848,-2.27179 -3.43634,-4.83147 -4.90733,-7.79867 -1.1948,-2.35546 -2.12956,-5.0061 -2.62684,-7.85668 -0.49727,-2.85058 -0.55624,-5.90084 0.01,-9.01353 0.13068,-0.71833 0.29374,-1.43461 0.48998,-2.14691 1.01337,-3.53553 3.10714,-6.78712 6.06774,-9.20923 3.18333,-2.59126 7.30499,-3.71845 11.36529,-3.18627 2.75537,0.46812 5.04507,1.57382 6.84176,2.94692 1.90443,1.43647 3.34601,2.97958 4.51618,4.43166 2.59426,3.16213 4.53891,6.36028 5.95432,9.31237 1.41542,2.9521 2.30521,5.65791 2.82938,7.9224 0.52418,2.26449 0.68691,4.0887 0.62915,5.3579 -0.0578,1.26919 -0.33205,1.98466 -0.76261,2.09321 -0.43056,0.10855 -0.99151,-0.39335 -1.70412,-1.37581 -0.71262,-0.98246 -1.58144,-2.44604 -2.69752,-4.24437 -1.11608,-1.79833 -2.48291,-3.93258 -4.20041,-6.22551 -1.71751,-2.29293 -3.78768,-4.74514 -6.27791,-7.13421 -1.1475,-1.07833 -2.24955,-2.07086 -3.37902,-2.71626 -1.05504,-0.58375 -2.08925,-1.02875 -2.95644,-1.0289 -1.2,-0.14778 -2.75426,0.49685 -3.95401,1.47187 -1.19496,0.95903 -2.10665,2.60103 -2.69226,4.43625 -0.12756,0.37531 -0.232,0.76203 -0.31445,1.15902 -0.71453,3.44043 0.23009,7.41691 1.63139,10.99571 0.93667,2.29771 2.20298,4.47101 3.56068,6.58163 1.3577,2.11063 2.8059,4.15818 4.17176,6.15846 0,0 0,0 0,0 1.29128,1.84133 2.605,3.83179 3.61454,5.95613 1.2094,2.48455 1.76907,5.21211 1.65036,7.70385 -0.17197,2.72824 -1.208,4.88657 -2.37674,6.37442 -0.66656,0.84608 -1.37338,1.4737 -2.03301,1.9311 -0.65963,0.4574 -1.27268,0.7455 -1.79133,0.91397 -1.0373,0.33694 -1.67708,0.21723 -1.87001,-0.12433 z"
       id="path3529"
       inkscape:path-effect="#path-effect3531;#path-effect3533"
       inkscape:original-d="m 444.42753,433.50092 c 5.73825,1.31658 6.27636,-4.95247 5.06398,-9.00013 -1.19008,-3.97321 -3.46418,-7.61634 -5.50123,-11.19454 -4.40246,-7.73316 -11.22522,-19.77246 -10.5957,-28.8813 0.44188,-6.39387 5.74626,-10.37583 12.03965,-9.15181 3.52572,0.68572 6.47652,2.9647 8.8467,5.56187 5.72545,6.27378 7.87876,14.48416 11.7651,21.83289"
       inkscape:connector-curvature="0"
       inkscape:export-xdpi="71.844772"
       inkscape:export-ydpi="71.844772" />
    <path
       style="fill:#000000;fill-rule:evenodd;stroke:none"
       d="m 487.01198,401.29332 c -0.49961,0.33085 -1.12895,0.4109 -1.82658,0.37187 -0.69763,-0.039 -1.46835,-0.19535 -2.29341,-0.37303 -1.65014,-0.35535 -3.53467,-0.7994 -5.40077,-0.86292 0,0 0,0 0,0 -0.56379,-0.0284 -1.15139,-0.0263 -1.76134,0.006 -1.80325,0.096 -3.5229,0.42754 -5.049,0.85705 -1.22027,0.34292 -2.3778,0.76949 -3.42072,1.03881 -1.04292,0.26932 -1.98862,0.3833 -2.73101,-0.0166 -0.74239,-0.39993 -1.19345,-1.31155 -1.08626,-2.67395 0.10719,-1.3624 0.80155,-3.17416 2.35763,-4.89949 1.0041,-1.10169 2.33939,-2.13619 3.94752,-2.91104 1.60812,-0.77486 3.48879,-1.28583 5.48603,-1.38175 1.35112,-0.0649 2.68413,0.0623 3.93796,0.35116 0,0 0,0 0,0 2.06658,0.49181 3.82385,1.4049 5.17102,2.47023 1.34716,1.06532 2.28768,2.27663 2.85572,3.39577 0.56804,1.11914 0.76898,2.14274 0.70392,2.93712 -0.0651,0.79438 -0.3911,1.35974 -0.89071,1.69059 z"
       id="path3559"
       inkscape:path-effect="#path-effect3561;#path-effect3563"
       inkscape:original-d="m 487.01198,401.29332 c -4.28143,-7.44088 -11.92568,-7.92178 -18.77128,-3.27645 -1.51211,1.0261 -3.28071,2.42329 -3.71155,4.29781"
       inkscape:connector-curvature="0"
       inkscape:export-filename="/home/pdurbin/gr/wiki/spanworm.com/path3529.png"
       inkscape:export-xdpi="71.844772"
       inkscape:export-ydpi="71.844772" />
    <path
       style="fill:#000000;fill-rule:evenodd;stroke:none"
       d="m 447.66606,433.22065 c -0.40429,0.3846 -0.97345,0.55869 -1.64313,0.61179 -0.66967,0.0531 -1.44258,-0.0131 -2.29065,-0.11899 -1.69614,-0.21179 -3.70336,-0.57407 -5.8122,-0.64797 0,0 0,0 0,0 -0.99682,-0.0397 -2.04509,-0.0225 -3.13083,0.065 -1.43836,0.11594 -2.80162,0.3434 -4.06025,0.63795 0,0 0,0 0,0 -1.86188,0.42959 -3.58183,1.0453 -5.05758,1.454 -1.47575,0.4087 -2.74041,0.61414 -3.58962,0.0308 -0.42461,-0.29166 -0.7069,-0.76668 -0.80317,-1.41865 -0.0963,-0.65197 -0.005,-1.48107 0.33299,-2.42258 0.33759,-0.9415 0.92336,-1.9946 1.79801,-3.04069 0.87465,-1.04608 2.04007,-2.08332 3.48823,-2.95926 0,0 0,-10e-6 0,-10e-6 1.97191,-1.18656 4.43226,-2.03916 7.09261,-2.25161 2.00814,-0.16036 3.97086,0.0534 5.73208,0.54478 0,0 0,0 0,0 1.86031,0.52434 3.45638,1.34526 4.72046,2.27381 1.26409,0.92856 2.19812,1.96126 2.81571,2.9315 0.61758,0.97023 0.92172,1.87594 0.9695,2.61485 0.0478,0.7389 -0.15787,1.31065 -0.56216,1.69525 z"
       id="path3577"
       inkscape:path-effect="#path-effect3579;#path-effect3581"
       inkscape:original-d="m 447.66606,433.22065 c -2.80798,-6.1698 -13.68735,-5.68995 -18.85263,-3.63039 -2.72548,1.08673 -5.47096,2.93433 -6.73163,5.663"
       inkscape:connector-curvature="0"
       inkscape:export-filename="/home/pdurbin/gr/wiki/spanworm.com/path3529.png"
       inkscape:export-xdpi="71.844772"
       inkscape:export-ydpi="71.844772" />
  </g>
</svg>
