<?xml version="1.0" encoding="UTF-8" standalone="no"?>
<svg
   xmlns:dc="http://purl.org/dc/elements/1.1/"
   xmlns:cc="http://creativecommons.org/ns#"
   xmlns:rdf="http://www.w3.org/1999/02/22-rdf-syntax-ns#"
   xmlns:svg="http://www.w3.org/2000/svg"
   xmlns="http://www.w3.org/2000/svg"
   xmlns:xlink="http://www.w3.org/1999/xlink"
   xmlns:sodipodi="http://sodipodi.sourceforge.net/DTD/sodipodi-0.dtd"
   xmlns:inkscape="http://www.inkscape.org/namespaces/inkscape"
   sodipodi:docname="bee.svg"
   inkscape:version="1.0alpha2 (863a58d, 2019-08-17)"
   id="svg2590"
   version="1.1"
   viewBox="0 0 180.61099 153.78311"
   height="153.78311mm"
   width="180.61099mm">
  <defs
     id="defs2584" />
  <sodipodi:namedview
     fit-margin-bottom="10"
     fit-margin-right="10"
     fit-margin-left="10"
     fit-margin-top="10"
     inkscape:window-maximized="0"
     inkscape:window-y="109"
     inkscape:window-x="19"
     inkscape:window-height="1273"
     inkscape:window-width="2235"
     showgrid="false"
     inkscape:document-rotation="0"
     inkscape:current-layer="layer3"
     inkscape:document-units="mm"
     inkscape:cy="328.1629"
     inkscape:cx="440.47224"
     inkscape:zoom="1"
     inkscape:pageshadow="2"
     inkscape:pageopacity="0.0"
     borderopacity="1.0"
     bordercolor="#666666"
     pagecolor="#ffffff"
     id="base" />
  <metadata
     id="metadata2587">
    <rdf:RDF>
      <cc:Work
         rdf:about="">
        <dc:format>image/svg+xml</dc:format>
        <dc:type
           rdf:resource="http://purl.org/dc/dcmitype/StillImage" />
        <dc:title></dc:title>
      </cc:Work>
    </rdf:RDF>
  </metadata>
  <g
     transform="translate(-49.886385,-12.56962)"
     sodipodi:insensitive="true"
     style="display:none;opacity:0.36"
     id="layer1"
     inkscape:groupmode="layer"
     inkscape:label="bitmap">
    <image
       sodipodi:absref="/Users/family/Desktop/Erika/bee2019_12_16_06_54_12.png"
       xlink:href="../../../Desktop/Erika/bee2019_12_16_06_54_12.png"
       y="0.85674942"
       x="14.463878"
       width="277.98892"
       height="214.48889"
       preserveAspectRatio="none"
       id="image2690"
       style="opacity:1;stop-opacity:1" />
  </g>
  <g
     transform="translate(-49.886385,-12.56962)"
     style="display:inline"
     inkscape:label="vector"
     id="layer3"
     inkscape:groupmode="layer">
    <path
       transform="matrix(-0.97525714,0.22107356,-0.14517246,-0.98940637,0,0)"
       d="m -93.069174,-100.28899 a 18.385096,48.214668 0 0 1 -9.247316,41.837725 18.385096,48.214668 0 0 1 -18.43954,-0.249259 18.385096,48.214668 0 0 1 -9.08236,-42.085496"
       sodipodi:arc-type="arc"
       sodipodi:open="true"
       sodipodi:end="3.1519016"
       sodipodi:start="0"
       sodipodi:ry="48.214668"
       sodipodi:rx="18.385096"
       sodipodi:cy="-100.28899"
       sodipodi:cx="-111.45427"
       sodipodi:type="arc"
       id="path2699"
       style="fill:#ffffff;fill-rule:evenodd;stroke:#000000;stroke-width:1.3666;stroke-opacity:0.769231" />
    <path
       style="fill:#ffffff;fill-rule:evenodd;stroke:#000000;stroke-width:1.3666;stroke-opacity:0.769231"
       id="path2701"
       sodipodi:type="arc"
       sodipodi:cx="-156.63492"
       sodipodi:cy="-70.554832"
       sodipodi:rx="18.385096"
       sodipodi:ry="48.214668"
       sodipodi:start="0"
       sodipodi:end="3.1519016"
       sodipodi:open="true"
       sodipodi:arc-type="arc"
       d="m -138.24982,-70.554832 a 18.385096,48.214668 0 0 1 -9.24732,41.837721 18.385096,48.214668 0 0 1 -18.43953,-0.24926 18.385096,48.214668 0 0 1 -9.08237,-42.085495"
       transform="matrix(-0.99999817,-0.00191139,0.07905667,-0.99687012,0,0)" />
    <ellipse
       ry="43.164028"
       rx="71.494598"
       cy="113.18864"
       cx="149.00278"
       id="path2695"
       style="fill:none;fill-rule:evenodd;stroke:#000000;stroke-width:0.948289;stroke-opacity:0.769231" />
    <circle
       r="3.2072344"
       cy="102.36423"
       cx="207.66843"
       id="path2697"
       style="fill:#000000;fill-rule:evenodd;stroke:#000000;stroke-width:1;stroke-opacity:0.769231" />
    <path
       transform="matrix(1.4241798,0.08603256,-0.06029858,0.99818039,-6.0504835,0.38398766)"
       inkscape:transform-center-y="0.01706571"
       inkscape:transform-center-x="2.8028567"
       d="m 64.144687,115.19317 -13.234294,-6.25719 12.036034,-8.33264 z"
       inkscape:randomized="0"
       inkscape:rounded="0"
       inkscape:flatsided="true"
       sodipodi:arg2="2.0124492"
       sodipodi:arg1="0.96525166"
       sodipodi:r2="4.2259021"
       sodipodi:r1="8.4518042"
       sodipodi:cy="108.24416"
       sodipodi:cx="59.333836"
       sodipodi:sides="3"
       id="path2705"
       style="fill:#ffffff;fill-rule:evenodd;stroke:#000000;stroke-width:1;stroke-opacity:0.769231"
       sodipodi:type="star" />
    <path
       inkscape:connector-curvature="0"
       transform="scale(0.26458333)"
       d="m 520.7832,266.67969 a 270.2158,163.13963 0 0 0 -11.66601,1.27734 v 319.68555 a 270.2158,163.13963 0 0 0 54.04297,3.29687 h 0.11132 a 270.2158,163.13963 0 0 0 40.79883,-1.88086 v -322.3789 z"
       style="fill:#000000;fill-rule:evenodd;stroke:#000000;stroke-width:3.77953;stroke-opacity:0.769231"
       id="rect2713" />
    <path
       inkscape:connector-curvature="0"
       transform="scale(0.26458333)"
       d="m 439.19141,282.8418 a 270.2158,163.13963 0 0 0 -81.59766,39.07422 v 211.76757 a 270.2158,163.13963 0 0 0 78.4043,38.0625 h 3.41797 V 282.8418 Z"
       style="fill:#000000;fill-rule:evenodd;stroke:#000000;stroke-width:3.77953;stroke-opacity:0.769231"
       id="rect2721" />
    <path
       inkscape:connector-curvature="0"
       transform="scale(0.26458333)"
       d="m 640.25781,271.44141 v 311.41601 h 6.89453 a 270.2158,163.13963 0 0 0 56.92383,-15.85937 V 288.59961 a 270.2158,163.13963 0 0 0 -63.81836,-17.1582 z"
       style="fill:#000000;fill-rule:evenodd;stroke:#000000;stroke-width:3.77953;stroke-opacity:0.769231"
       id="rect2723" />
    <path
       inkscape:connector-curvature="0"
       transform="scale(0.26458333)"
       d="m 323.24805,352.73438 a 270.2158,163.13963 0 0 0 -27.27344,50.70312 v 48.7207 a 270.2158,163.13963 0 0 0 27.27344,50.70508 z"
       style="fill:#000000;fill-rule:evenodd;stroke:#000000;stroke-width:3.77953;stroke-opacity:0.769231"
       id="rect2725" />
  </g>
</svg>
