<?xml version="1.0" encoding="UTF-8" standalone="no"?>
<svg
   xmlns:dc="http://purl.org/dc/elements/1.1/"
   xmlns:cc="http://creativecommons.org/ns#"
   xmlns:rdf="http://www.w3.org/1999/02/22-rdf-syntax-ns#"
   xmlns:svg="http://www.w3.org/2000/svg"
   xmlns="http://www.w3.org/2000/svg"
   xmlns:sodipodi="http://sodipodi.sourceforge.net/DTD/sodipodi-0.dtd"
   xmlns:inkscape="http://www.inkscape.org/namespaces/inkscape"
   width="826.41132"
   height="535.08411"
   version="1.1"
   id="svg16"
   sodipodi:docname="croc1.svg"
   inkscape:version="0.92.3 (2405546, 2018-03-11)">
  <metadata
     id="metadata22">
    <rdf:RDF>
      <cc:Work
         rdf:about="">
        <dc:format>image/svg+xml</dc:format>
        <dc:type
           rdf:resource="http://purl.org/dc/dcmitype/StillImage" />
        <dc:title></dc:title>
      </cc:Work>
    </rdf:RDF>
  </metadata>
  <defs
     id="defs20" />
  <sodipodi:namedview
     pagecolor="#ffffff"
     bordercolor="#666666"
     borderopacity="1"
     objecttolerance="10"
     gridtolerance="10"
     guidetolerance="10"
     inkscape:pageopacity="0"
     inkscape:pageshadow="2"
     inkscape:window-width="712"
     inkscape:window-height="480"
     id="namedview18"
     showgrid="false"
     fit-margin-top="0"
     fit-margin-left="0"
     fit-margin-right="0"
     fit-margin-bottom="0"
     inkscape:zoom="0.15364583"
     inkscape:cx="334.22948"
     inkscape:cy="308.00178"
     inkscape:window-x="0"
     inkscape:window-y="27"
     inkscape:window-maximized="0"
     inkscape:current-layer="svg16" />
  <path
     d="m 63.22949,517.0823 q 0,0 1,0 1,0 9.5,-1.5 8.5,-1.5 26.5,-4 18,-2.5 44.5,-6 26.5,-3.5 58,-8.5 31.5,-5 64,-11 32.5,-6 65,-13 32.5,-7 62,-13.5 29.5,-6.5 59,-11.5 29.5,-5 57,-8.5 27.5,-3.5 52,-6 24.5,-2.5 45.5,-4.5 21,-2 41.5,-5 20.5,-3 37,-6 16.5,-3 28.5,-5.5 12,-2.5 18.5,-4.5 6.5,-2 14.5,-3.5 8,-1.5 18,-1.5 10,0 10.5,0.5 l 0.5,0.5"
     id="path4"
     inkscape:connector-curvature="0"
     style="fill:none;stroke:#000000;stroke-width:36;stroke-linecap:round" />
  <path
     d="m 52.22949,505.0823 q 0,0 0,-1 0,-1 -0.5,-6 -0.5,-5 -0.5,-14 0,-9 -1,-23.5 -1,-14.5 -2,-31.5 -1,-17 -3,-36 -2,-19 -3.5,-37 -1.5,-18 -4,-36.5 -2.5,-18.5 -3.5,-36 -1,-17.5 -3,-36 -2,-18.5 -3.5,-33.5 -1.5,-15 -2,-30 -0.5,-15 0,-24 l 0.5,-9"
     id="path6"
     inkscape:connector-curvature="0"
     style="fill:none;stroke:#000000;stroke-width:36;stroke-linecap:round" />
  <path
     d="m 18.22949,157.0823 q 0,0 1,-0.5 1,-0.5 7.5,-2 6.5,-1.5 21.5,-4.5 15,-3 37,-5.5 22,-2.5 48,-2 26,0.5 40,3 l 14,2.5"
     id="path8"
     inkscape:connector-curvature="0"
     style="fill:none;stroke:#000000;stroke-width:36;stroke-linecap:round" />
  <path
     d="m 183.22949,168.0823 q 0,0 0.5,-1 0.5,-1 2.5,-5.5 2,-4.5 6,-11 4,-6.5 13,-15 9,-8.5 21,-16.5 12,-8 25,-12.5 13,-4.5 24.5,-5 11.5,-0.5 18.5,1.5 7,2 12.5,8 5.5,6 15,25.5 l 9.5,19.5"
     id="path10"
     inkscape:connector-curvature="0"
     style="fill:none;stroke:#000000;stroke-width:36;stroke-linecap:round" />
  <path
     d="m 343.22949,172.0823 q 0,0 2,-1 2,-1 8.5,-5 6.5,-4 21.5,-11 15,-7 38,-17 23,-10 52,-22 29,-12 59,-26 30,-14 60.5,-27 30.5,-13 57,-24.5 26.5,-11.5 40,-16 l 13.5,-4.5"
     id="path12"
     inkscape:connector-curvature="0"
     style="fill:none;stroke:#000000;stroke-width:36;stroke-linecap:round" />
  <path
     d="m 808.22949,406.0823 q 0,0 -1,-1 -1,-1 -4,-4.5 -3,-3.5 -8.5,-11 -5.5,-7.5 -12,-18 -6.5,-10.5 -12.5,-20.5 -6,-10 -11.5,-19.5 -5.5,-9.5 -10,-17 -4.5,-7.5 -7.5,-12 -3,-4.5 -4,-5.5 -1,-1 -2,-0.5 -1,0.5 -3.5,3 -2.5,2.5 -8,10 -5.5,7.5 -8,12 -2.5,4.5 -3.5,6 -1,1.5 -3,3.5 -2,2 -7.5,4 -5.5,2 -12,1.5 -6.5,-0.5 -12,-3.5 -5.5,-3 -11,-9.5 -5.5,-6.5 -12,-18.5 -6.5,-12 -9,-19 -2.5,-7 -3,-8 -0.5,-1 -1,0 -0.5,1 -5.5,10 -5,9 -9.5,17.5 -4.5,8.5 -7.5,14 -3,5.5 -4.5,7.5 -1.5,2 -2,2.5 -0.5,0.5 -2.5,2 -2,1.5 -4.5,3 -2.5,1.5 -5,1.5 -2.5,0 -6,-2.5 -3.5,-2.5 -9,-7 -5.5,-4.5 -11.5,-9 -6,-4.5 -10,-7 -4,-2.5 -7.5,-4.5 -3.5,-2 -7,-2.5 -3.5,-0.5 -7.5,1 -4,1.5 -8.5,6.5 -4.5,5 -12,15.5 -7.5,10.5 -14,17 -6.5,6.5 -13.5,12.5 -7,6 -11.5,10 -4.5,4 -9,7 -4.5,3 -13.5,6.5 -9,3.5 -19,3.5 -10,0 -15.5,-2.5 -5.5,-2.5 -11,-6.5 -5.5,-4 -13.5,-15 -8,-11 -12.5,-16.5 -4.5,-5.5 -5.5,-7 -1,-1.5 -3.5,-3 -2.5,-1.5 -6.5,-1.5 -4,0 -9,4 -5,4 -11,12 -6,8 -13.5,18 -7.5,10 -15,18.5 -7.5,8.5 -13,14.5 -5.5,6 -10,10 -4.5,4 -9,6.5 -4.5,2.5 -10,4.5 -5.5,2 -13,1.5 -7.5,-0.5 -15.5,-3.5 -8,-3 -11.5,-6 -3.5,-3 -7,-6 -3.5,-3 -5.5,-4.5 -2,-1.5 -6,-4 -4,-2.5 -11.5,-3 -7.5,-0.5 -17,3 -9.5,3.5 -15,7 -5.5,3.5 -10,7 -4.5,3.5 -10,7.5 -5.5,4 -11,6.5 -5.5,2.5 -10,4 -4.5,1.5 -7.5,1 -3,-0.5 -4.5,-1.5 -1.5,-1 -9,-15.5 -7.5,-14.5 -10.5,-27 -3,-12.5 -4,-26.5 -1,-14 -0.5,-20 0.5,-6 0.5,-7 0,-1 2.5,-2.5 2.5,-1.5 8.5,-2 6,-0.5 10.5,2.5 4.5,3 7,5 2.5,2 4,4 1.5,2 2.5,3 1,1 2.5,2 1.5,1 4,2.5 2.5,1.5 6.5,2 4,0.5 9,-3 5,-3.5 10.5,-9.5 5.5,-6 12.5,-14.5 7,-8.5 12.5,-16 5.5,-7.5 13.5,-14 8,-6.5 19.5,-11.5 11.5,-5 20.5,-5 9,0 24,4 15,4 24.5,7.5 9.5,3.5 17.5,6.5 8,3 19,6 11,3 19,4 8,1 12,0.5 4,-0.5 8.5,-1.5 4.5,-1 10,-5 5.5,-4 12.5,-10.5 7,-6.5 14.5,-13 7.5,-6.5 13,-11 5.5,-4.5 10.5,-7 5,-2.5 13.5,-4.5 8.5,-2 16.5,-1.5 8,0.5 14.5,2.5 6.5,2 10.5,4.5 4,2.5 7.5,4 3.5,1.5 7,2.5 3.5,1 8,1 4.5,0 9,-1.5 4.5,-1.5 9.5,-5.5 5,-4 12,-14 7,-10 13,-22 6,-12 9,-19.5 3,-7.5 5.5,-14.5 2.5,-7 4,-10 1.5,-3 7.5,-6.5 6,-3.5 13.5,-5 7.5,-1.5 12,-0.5 4.5,1 8.5,3 4,2 10,5.5 6,3.5 13.5,8 7.5,4.5 14,8 6.5,3.5 12,5.5 5.5,2 10.5,3 5,1 12.5,1.5 7.5,0.5 17,1 9.5,0.5 14.5,0.5 5,0 7.5,0 2.5,0 3,0 0.5,0 1,-1 0.5,-1 3.5,-15 3,-14 1.5,-30 -1.5,-16 -4.5,-33 -3,-17 -5,-33 -2,-16 -2.5,-30 -0.5,-14 -0.5,-20.5 v -6.5"
     id="path14"
     inkscape:connector-curvature="0"
     style="fill:none;stroke:#000000;stroke-width:36;stroke-linecap:round" />
</svg>
